<?xml version="1.0" encoding="UTF-8" standalone="no"?>
<svg
   width="797.29657"
   zoomAndPan="magnify"
   viewBox="0 0 597.97243 170.89713"
   height="227.86284"
   preserveAspectRatio="xMidYMid meet"
   version="1.0"
   id="svg852"
   xmlns="http://www.w3.org/2000/svg"
   xmlns:svg="http://www.w3.org/2000/svg">
  <defs
     id="defs694">
    <g
       id="g686" />
    <clipPath
       id="4ee78c91de">
      <path
         d="m 344,298.10547 h 19 V 316 h -19 z m 0,0"
         clip-rule="nonzero"
         id="path688" />
    </clipPath>
    <clipPath
       id="53021cd1f9">
      <path
         d="m 332.70312,329 h 42 v 74.10547 h -42 z m 0,0"
         clip-rule="nonzero"
         id="path691" />
    </clipPath>
  </defs>
  <g
     fill="#00b7c3"
     fill-opacity="1"
     id="g708"
     transform="translate(-108.38081,-298.125)">
    <g
       transform="translate(104.80268,402.55798)"
       id="g706">
      <g
         id="g704">
        <path
           d="M 3.578125,-57.578125 H 21.40625 V -57.625 h 1.25 c 3.382812,0 6.570312,0.359375 9.5625,1.078125 2.988281,0.71875 5.734375,1.714844 8.234375,2.984375 2.507813,1.273438 4.726563,2.746094 6.65625,4.421875 2.695313,2.59375 4.71875,5.601563 6.0625,9.015625 1.34375,3.417969 2.015625,7.199219 2.015625,11.34375 0,4.179688 -0.671875,7.96875 -2.015625,11.375 -1.34375,3.40625 -3.367187,6.398438 -6.0625,8.96875 -3.574219,2.8125 -7.625,4.921875 -12.15625,6.328125 C 30.429688,-0.703125 25.5,0 20.15625,0 H 3.578125 Z M 40.53125,-28.84375 c 0,-2.40625 -0.460938,-4.523438 -1.375,-6.359375 -0.917969,-1.832031 -2.1875,-3.375 -3.8125,-4.625 -1.617188,-1.257813 -3.507812,-2.207031 -5.671875,-2.84375 -2.167969,-0.644531 -4.515625,-0.96875 -7.046875,-0.96875 h -3.71875 l 0.140625,29.59375 h 1.546875 c 5.71875,0 10.300781,-1.25 13.75,-3.75 3.457031,-2.5 5.519531,-6.179687 6.1875,-11.046875 z m 0,0"
           id="path702" />
      </g>
    </g>
  </g>
  <g
     fill="#00b7c3"
     fill-opacity="1"
     id="g716"
     transform="translate(-108.38081,-298.125)">
    <g
       transform="translate(191.8695,402.55798)"
       id="g714">
      <g
         id="g712">
        <path
           d="m 3.578125,0.078125 v -57.84375 h 39.75 V -43.71875 H 18.34375 v 7.875 h 19.1875 v 14.046875 H 18.34375 V -13.9375 H 43.328125 V 0.078125 Z m 0,0"
           id="path710" />
      </g>
    </g>
  </g>
  <g
     fill="#00b7c3"
     fill-opacity="1"
     id="g724"
     transform="translate(-108.38081,-298.125)">
    <g
       transform="translate(267.07169,402.55798)"
       id="g722">
      <g
         id="g720">
        <path
           d="m 15.765625,-19.734375 v 1.5 c 0,0.71875 0.25,1.402344 0.75,2.046875 0.5,0.636719 1.144531,1.1875 1.9375,1.65625 0.800781,0.46875 1.671875,0.761719 2.609375,0.875 h 0.75 c 0.976562,0 1.9375,-0.210938 2.875,-0.640625 0.9375,-0.425781 1.707031,-0.976563 2.3125,-1.65625 0.613281,-0.6875 0.921875,-1.398437 0.921875,-2.140625 0,-0.945312 -0.351563,-1.71875 -1.046875,-2.3125 -0.6875,-0.59375 -1.601562,-1.085938 -2.734375,-1.484375 -1.125,-0.394531 -2.351563,-0.742187 -3.671875,-1.046875 -1.324219,-0.3125 -2.632812,-0.660156 -3.921875,-1.046875 -2,-0.59375 -3.890625,-1.390625 -5.671875,-2.390625 -1.773438,-1 -3.335938,-2.191406 -4.6875,-3.578125 -1.355469,-1.382813 -2.421875,-2.9375 -3.203125,-4.65625 -0.773437,-1.726563 -1.15625,-3.609375 -1.15625,-5.640625 0,-2.445312 0.5,-4.742188 1.5,-6.890625 1,-2.144531 2.398437,-4.035156 4.203125,-5.671875 1.800781,-1.632812 3.914062,-2.910156 6.34375,-3.828125 2.425781,-0.914063 5.09375,-1.375 8,-1.375 2.625,0 5.066406,0.414063 7.328125,1.234375 2.269531,0.824219 4.285156,1.96875 6.046875,3.4375 1.757812,1.460938 3.191406,3.167969 4.296875,5.125 1.113281,1.960938 1.828125,4.078125 2.140625,6.359375 l 0.140625,1.109375 -14.796875,3 c 0,-1.78125 -0.398438,-3.242188 -1.1875,-4.390625 -0.78125,-1.144531 -2.078125,-1.71875 -3.890625,-1.71875 -0.929687,0 -1.789063,0.199219 -2.578125,0.59375 -0.78125,0.398437 -1.40625,0.929687 -1.875,1.59375 -0.46875,0.667969 -0.703125,1.402344 -0.703125,2.203125 0,0.960938 0.328125,1.773438 0.984375,2.4375 0.65625,0.667969 1.515625,1.230469 2.578125,1.6875 1.0625,0.449219 2.222656,0.839844 3.484375,1.171875 1.257812,0.335937 2.5,0.65625 3.71875,0.96875 2.050781,0.523437 3.992188,1.261719 5.828125,2.21875 1.832031,0.949219 3.453125,2.101563 4.859375,3.453125 1.40625,1.34375 2.503906,2.875 3.296875,4.59375 0.800781,1.710938 1.203125,3.601562 1.203125,5.671875 0,2.480469 -0.542969,4.796875 -1.625,6.953125 -1.085938,2.15625 -2.585938,4.046875 -4.5,5.671875 -1.917969,1.617187 -4.136719,2.882813 -6.65625,3.796875 -2.511719,0.9140625 -5.195312,1.375 -8.046875,1.375 -2.648437,0 -5.148437,-0.402344 -7.5,-1.203125 -2.34375,-0.8125 -4.449219,-1.941406 -6.3125,-3.390625 C 6.253906,-5.519531 4.722656,-7.234375 3.515625,-9.203125 2.316406,-11.171875 1.550781,-13.3125 1.21875,-15.625 l -0.171875,-1.109375 z m 0,0"
           id="path718" />
      </g>
    </g>
  </g>
  <g
     fill="#00b7c3"
     fill-opacity="1"
     id="g730"
     transform="translate(-108.38081,-298.125)">
    <g
       transform="translate(341.73784,402.55798)"
       id="g728">
      <g
         id="g726" />
    </g>
  </g>
  <g
     fill="#00b7c3"
     fill-opacity="1"
     id="g738"
     transform="translate(-108.38081,-298.125)">
    <g
       transform="translate(393.63962,402.55798)"
       id="g736">
      <g
         id="g734">
        <path
           d="m 34.03125,-58.078125 0.07813,0.109375 c 3.070313,0.09375 5.945313,0.546875 8.625,1.359375 2.675781,0.804687 5.125,1.867187 7.34375,3.1875 2.21875,1.324219 4.171875,2.773437 5.859375,4.34375 l 0.90625,0.890625 -10.546875,10.015625 -0.9375,-0.859375 c -3.449219,-3.21875 -7.5,-4.828125 -12.15625,-4.828125 -4.742187,0 -8.789063,1.480469 -12.140625,4.4375 -3.367188,2.949219 -5.046875,6.496094 -5.046875,10.640625 0,4.15625 1.679687,7.710938 5.046875,10.65625 3.332031,2.9375 7.378906,4.40625 12.140625,4.40625 2.125,0 4.109375,-0.316406 5.953125,-0.953125 1.851562,-0.632813 3.503906,-1.492187 4.953125,-2.578125 1.457031,-1.082031 2.648437,-2.28125 3.578125,-3.59375 h -16.48438 v -12.75 H 64.5625 l 0.109375,1.109375 c 0.28125,3.617187 0.08203,6.914063 -0.59375,9.890625 -0.679687,2.980469 -1.730469,5.664062 -3.15625,8.046875 -1.417969,2.386719 -3.101563,4.515625 -5.046875,6.390625 -6.34375,5.71875 -13.933594,8.578125 -22.765625,8.578125 -8.9375,0 -16.53125,-2.84375 -22.78125,-8.53125 C 4.378906,-13.785156 1.40625,-20.675781 1.40625,-28.78125 c 0,-8.019531 2.972656,-14.914062 8.921875,-20.6875 6.269531,-5.738281 13.863281,-8.609375 22.78125,-8.609375 z m 0,0"
           id="path732" />
      </g>
    </g>
  </g>
  <g
     fill="#00b7c3"
     fill-opacity="1"
     id="g746"
     transform="translate(-108.38081,-298.125)">
    <g
       transform="translate(490.31966,402.55798)"
       id="g744">
      <g
         id="g742">
        <path
           d="m 3.578125,-57.765625 h 3.03125 l 33.75,30.3125 v -30.3125 H 54.90625 V 0 h -3.1875 l -33.625,-30.234375 V 0 H 3.578125 Z m 0,0"
           id="path740" />
      </g>
    </g>
  </g>
  <g
     fill="#00b7c3"
     fill-opacity="1"
     id="g754"
     transform="translate(-108.38081,-298.125)">
    <g
       transform="translate(579.24479,402.55798)"
       id="g752">
      <g
         id="g750">
        <path
           d="m 3.578125,0.078125 v -57.84375 h 39.75 V -43.71875 H 18.34375 v 7.875 h 19.1875 v 14.046875 H 18.34375 V -13.9375 H 43.328125 V 0.078125 Z m 0,0"
           id="path748" />
      </g>
    </g>
  </g>
  <g
     fill="#00b7c3"
     fill-opacity="1"
     id="g762"
     transform="translate(-108.38081,-298.125)">
    <g
       transform="translate(654.44698,402.55798)"
       id="g760">
      <g
         id="g758">
        <path
           d="M 17.65625,0 H 3.578125 L 3.546875,-57.625 H 24.59375 c 3.457031,0 6.804688,0.492188 10.046875,1.46875 2.8125,0.980469 5.289063,2.480469 7.4375,4.5 1.1875,1.179688 2.226563,2.382812 3.125,3.609375 0.894531,1.21875 1.585937,2.617187 2.078125,4.1875 0.488281,1.574219 0.734375,3.433594 0.734375,5.578125 v 1.46875 c 0,3.980469 -1.304687,7.710938 -3.90625,11.1875 -0.90625,1.242188 -1.808594,2.226562 -2.703125,2.953125 -0.886719,0.71875 -1.996094,1.390625 -3.328125,2.015625 L 51.90625,0 h -17.125 l -17.125,-22.515625 z m 8.265625,-30.203125 c 1.28125,0 2.488281,-0.296875 3.625,-0.890625 1.132813,-0.59375 2.050781,-1.398438 2.75,-2.421875 0.707031,-1.03125 1.0625,-2.210937 1.0625,-3.546875 0,-1.769531 -0.757813,-3.320312 -2.265625,-4.65625 -0.5,-0.425781 -1.15625,-0.78125 -1.96875,-1.0625 -0.804688,-0.289062 -1.679688,-0.503906 -2.625,-0.640625 -0.9375,-0.144531 -1.84375,-0.21875 -2.71875,-0.21875 H 17.625 v 13.40625 h 5.21875 v 0.03125 z m 0,0"
           id="path756" />
      </g>
    </g>
  </g>
  <g
     fill="#00b7c3"
     fill-opacity="1"
     id="g768"
     transform="translate(-108.38081,-298.125)">
    <g
       transform="translate(401.31128,483.22345)"
       id="g766">
      <g
         id="g764" />
    </g>
  </g>
  <g
     fill="#00b7c3"
     fill-opacity="1"
     id="g776"
     transform="translate(-108.38081,-298.125)">
    <g
       transform="translate(171.88302,468.61588)"
       id="g774">
      <g
         id="g772">
        <path
           d="m 26.875,-44.4375 -0.01563,0.140625 c 2.257813,0.105469 4.367187,0.46875 6.328125,1.09375 1.957031,0.617187 3.738281,1.417969 5.34375,2.40625 1.601562,0.980469 3.035156,2.074219 4.296875,3.28125 l 0.671875,0.6875 -7.734375,7.65625 -0.703125,-0.65625 C 32.394531,-32.273438 29.238281,-33.5 25.59375,-33.5 c -3.679688,0 -6.804688,1.121094 -9.375,3.359375 -2.625,2.304687 -3.9375,5.023437 -3.9375,8.15625 0,3.167969 1.300781,5.875 3.90625,8.125 2.59375,2.242187 5.726562,3.359375 9.40625,3.359375 3.695312,0 6.851562,-1.222656 9.46875,-3.671875 l 0.734375,-0.65625 7.734375,7.65625 -0.6875,0.6875 c -1.054688,1.042969 -2.203125,1.980469 -3.453125,2.8125 -1.25,0.824219 -2.617187,1.546875 -4.09375,2.171875 -3,1.199219 -6.246094,1.796875 -9.734375,1.796875 -6.867188,-0.011719 -12.734375,-2.175781 -17.609375,-6.5 -4.574219,-4.375 -6.859375,-9.644531 -6.859375,-15.8125 0,-6.144531 2.285156,-11.421875 6.859375,-15.828125 4.90625,-4.394531 10.773437,-6.59375 17.609375,-6.59375 z m 0,0"
           id="path770" />
      </g>
    </g>
  </g>
  <g
     fill="#00b7c3"
     fill-opacity="1"
     id="g784"
     transform="translate(-108.38081,-298.125)">
    <g
       transform="translate(231.3418,468.61588)"
       id="g782">
      <g
         id="g780">
        <path
           d="m 7.9375,-37.84375 c 1.613281,-1.457031 3.269531,-2.671875 4.96875,-3.640625 1.695312,-0.976563 3.5,-1.710937 5.40625,-2.203125 1.914062,-0.5 4,-0.75 6.25,-0.75 2.238281,0 4.3125,0.25 6.21875,0.75 1.914062,0.492188 3.722656,1.226562 5.421875,2.203125 1.695313,0.96875 3.347656,2.183594 4.953125,3.640625 4.59375,4.398438 6.890625,9.671875 6.890625,15.828125 0,6.179687 -2.296875,11.449219 -6.890625,15.8125 -1.605469,1.4375 -3.25,2.640625 -4.9375,3.609375 -1.6875,0.960938 -3.492188,1.683594 -5.40625,2.171875 -1.90625,0.4765625 -3.992188,0.71875 -6.25,0.71875 -2.261719,0 -4.351562,-0.2460938 -6.265625,-0.734375 -1.917969,-0.488281 -3.726563,-1.210938 -5.421875,-2.171875 -1.6875,-0.957031 -3.328125,-2.15625 -4.921875,-3.59375 -4.574219,-4.375 -6.859375,-9.644531 -6.859375,-15.8125 0,-6.144531 2.28125,-11.421875 6.84375,-15.828125 z m 25.09375,7.625 c -0.875,-0.75 -1.730469,-1.375 -2.5625,-1.875 -0.824219,-0.5 -1.710938,-0.867188 -2.65625,-1.109375 -0.949219,-0.25 -2.03125,-0.375 -3.25,-0.375 -1.242188,0 -2.339844,0.125 -3.296875,0.375 -0.960937,0.242187 -1.855469,0.609375 -2.6875,1.109375 -0.824219,0.5 -1.667969,1.125 -2.53125,1.875 -2.5625,2.304688 -3.84375,5.023438 -3.84375,8.15625 0,3.167969 1.28125,5.871094 3.84375,8.109375 0.863281,0.773437 1.710937,1.402344 2.546875,1.890625 0.84375,0.492188 1.738281,0.859375 2.6875,1.109375 0.957031,0.25 2.050781,0.375 3.28125,0.375 1.195312,0 2.269531,-0.125 3.21875,-0.375 0.945312,-0.25 1.835938,-0.617187 2.671875,-1.109375 0.84375,-0.488281 1.703125,-1.117188 2.578125,-1.890625 2.59375,-2.21875 3.890625,-4.921875 3.890625,-8.109375 0,-3.15625 -1.296875,-5.875 -3.890625,-8.15625 z m 0,0"
           id="path778" />
      </g>
    </g>
  </g>
  <g
     fill="#00b7c3"
     fill-opacity="1"
     id="g792"
     transform="translate(-108.38081,-298.125)">
    <g
       transform="translate(295.31167,468.61588)"
       id="g790">
      <g
         id="g788">
        <path
           d="m 26.875,-44.4375 -0.01563,0.140625 c 2.257813,0.105469 4.367187,0.46875 6.328125,1.09375 1.957031,0.617187 3.738281,1.417969 5.34375,2.40625 1.601562,0.980469 3.035156,2.074219 4.296875,3.28125 l 0.671875,0.6875 -7.734375,7.65625 -0.703125,-0.65625 C 32.394531,-32.273438 29.238281,-33.5 25.59375,-33.5 c -3.679688,0 -6.804688,1.121094 -9.375,3.359375 -2.625,2.304687 -3.9375,5.023437 -3.9375,8.15625 0,3.167969 1.300781,5.875 3.90625,8.125 2.59375,2.242187 5.726562,3.359375 9.40625,3.359375 3.695312,0 6.851562,-1.222656 9.46875,-3.671875 l 0.734375,-0.65625 7.734375,7.65625 -0.6875,0.6875 c -1.054688,1.042969 -2.203125,1.980469 -3.453125,2.8125 -1.25,0.824219 -2.617187,1.546875 -4.09375,2.171875 -3,1.199219 -6.246094,1.796875 -9.734375,1.796875 -6.867188,-0.011719 -12.734375,-2.175781 -17.609375,-6.5 -4.574219,-4.375 -6.859375,-9.644531 -6.859375,-15.8125 0,-6.144531 2.285156,-11.421875 6.859375,-15.828125 4.90625,-4.394531 10.773437,-6.59375 17.609375,-6.59375 z m 0,0"
           id="path786" />
      </g>
    </g>
  </g>
  <g
     fill="#00b7c3"
     fill-opacity="1"
     id="g800"
     transform="translate(-108.38081,-298.125)">
    <g
       transform="translate(354.77045,468.61588)"
       id="g798">
      <g
         id="g796">
        <path
           d="m 2.703125,0 v -44.078125 h 10.75 V -27.1875 L 25.15625,-44.078125 h 12.4375 L 23.5625,-21.734375 39.859375,0 h -13.09375 l -13.3125,-16.375 V 0 Z m 0,0"
           id="path794" />
      </g>
    </g>
  </g>
  <g
     fill="#00b7c3"
     fill-opacity="1"
     id="g808"
     transform="translate(-108.38081,-298.125)">
    <g
       transform="translate(410.59301,468.61588)"
       id="g806">
      <g
         id="g804">
        <path
           d="m 1.09375,-33.390625 v -10.6875 H 35.5 v 10.6875 H 24.25 L 24.671875,0 H 12.5 l -0.140625,-33.390625 z m 0,0"
           id="path802" />
      </g>
    </g>
  </g>
  <g
     fill="#00b7c3"
     fill-opacity="1"
     id="g816"
     transform="translate(-108.38081,-298.125)">
    <g
       transform="translate(462.01385,468.61588)"
       id="g814">
      <g
         id="g812">
        <path
           d="m 23.65625,-21.4375 -2.875,5.953125 h 5.6875 z M 12.765625,0 H 1.09375 l 21.25,-44.03125 h 2.5625 L 46.1875,0 H 34.484375 l -3.25,-6.703125 H 16.03125 Z m 0,0"
           id="path810" />
      </g>
    </g>
  </g>
  <g
     fill="#00b7c3"
     fill-opacity="1"
     id="g824"
     transform="translate(-108.38081,-298.125)">
    <g
       transform="translate(524.1246,468.61588)"
       id="g822">
      <g
         id="g820">
        <path
           d="M 13.515625,0 H 2.734375 v -44.078125 h 10.78125 z m 0,0"
           id="path818" />
      </g>
    </g>
  </g>
  <g
     fill="#00b7c3"
     fill-opacity="1"
     id="g832"
     transform="translate(-108.38081,-298.125)">
    <g
       transform="translate(555.20453,468.61588)"
       id="g830">
      <g
         id="g828">
        <path
           d="m 2.734375,0 v -44.078125 h 10.78125 v 33.359375 h 19.625 V 0 Z m 0,0"
           id="path826" />
      </g>
    </g>
  </g>
  <g
     fill="#00b7c3"
     fill-opacity="1"
     id="g840"
     transform="translate(-108.38081,-298.125)">
    <g
       transform="translate(604.27412,468.61588)"
       id="g838">
      <g
         id="g836">
        <path
           d="m 12.0625,-15.09375 v 1.140625 c 0,0.554687 0.1875,1.074219 0.5625,1.5625 0.382812,0.492187 0.878906,0.917969 1.484375,1.28125 0.613281,0.355469 1.28125,0.574219 2,0.65625 h 0.5625 c 0.75,0 1.484375,-0.160156 2.203125,-0.484375 0.71875,-0.332031 1.3125,-0.753906 1.78125,-1.265625 0.46875,-0.519531 0.703125,-1.066406 0.703125,-1.640625 0,-0.726562 -0.265625,-1.316406 -0.796875,-1.765625 -0.53125,-0.457031 -1.230469,-0.835937 -2.09375,-1.140625 -0.867188,-0.300781 -1.804688,-0.566406 -2.8125,-0.796875 -1.011719,-0.238281 -2.011719,-0.503906 -3,-0.796875 -1.53125,-0.457031 -2.980469,-1.066406 -4.34375,-1.828125 -1.355469,-0.769531 -2.554688,-1.679687 -3.59375,-2.734375 -1.03125,-1.0625 -1.84375,-2.253906 -2.4375,-3.578125 -0.59375,-1.320313 -0.890625,-2.757813 -0.890625,-4.3125 0,-1.875 0.378906,-3.628906 1.140625,-5.265625 0.769531,-1.644531 1.84375,-3.09375 3.21875,-4.34375 1.375,-1.25 2.988281,-2.222656 4.84375,-2.921875 1.863281,-0.695313 3.910156,-1.046875 6.140625,-1.046875 2,0 3.863281,0.3125 5.59375,0.9375 1.738281,0.625 3.28125,1.5 4.625,2.625 1.351563,1.125 2.453125,2.4375 3.296875,3.9375 0.851562,1.492188 1.394531,3.109375 1.625,4.859375 l 0.109375,0.84375 -11.3125,2.296875 c 0,-1.363281 -0.304687,-2.484375 -0.90625,-3.359375 -0.605469,-0.875 -1.601563,-1.3125 -2.984375,-1.3125 -0.710938,0 -1.367188,0.152344 -1.96875,0.453125 -0.59375,0.292969 -1.074219,0.695312 -1.4375,1.203125 -0.355469,0.511719 -0.53125,1.078125 -0.53125,1.703125 0,0.730469 0.25,1.351562 0.75,1.859375 0.507812,0.511719 1.164062,0.9375 1.96875,1.28125 0.8125,0.34375 1.703125,0.648437 2.671875,0.90625 0.96875,0.25 1.914063,0.496094 2.84375,0.734375 1.570313,0.40625 3.054687,0.976562 4.453125,1.703125 1.40625,0.730469 2.644531,1.609375 3.71875,2.640625 1.082031,1.023438 1.925781,2.1875 2.53125,3.5 0.613281,1.3125 0.921875,2.765625 0.921875,4.359375 0,1.898437 -0.417969,3.667969 -1.25,5.3125 -0.824219,1.648437 -1.96875,3.089844 -3.4375,4.328125 -1.46875,1.242188 -3.167969,2.214844 -5.09375,2.921875 -1.917969,0.6953125 -3.96875,1.046875 -6.15625,1.046875 -2.03125,0 -3.945313,-0.3085938 -5.734375,-0.921875 -1.792969,-0.625 -3.402344,-1.488281 -4.828125,-2.59375 C 4.785156,-4.222656 3.613281,-5.53125 2.6875,-7.03125 1.769531,-8.539062 1.179688,-10.179688 0.921875,-11.953125 l -0.125,-0.84375 z m 0,0"
           id="path834" />
      </g>
    </g>
  </g>
  <g
     clip-path="url(#4ee78c91de)"
     id="g844"
     transform="translate(-108.38081,-298.125)">
    <path
       fill="#f682c4"
       d="m 359.58984,298.125 h -12.03515 c -1.87891,0 -3.40625,1.52344 -3.40625,3.40625 v 14.16016 h 18.84765 v -14.16016 c 0,-1.88281 -1.52734,-3.40625 -3.40625,-3.40625"
       fill-opacity="1"
       fill-rule="nonzero"
       id="path842" />
  </g>
  <path
     fill="#f682c4"
     d="m 254.61528,18.4375 h -18.84765 c -4.77344,0 -8.64453,3.87109 -8.64453,8.64844 v 3.51172 h 36.14063 v -3.51172 c 0,-4.77735 -3.87109,-8.64844 -8.64844,-8.64844"
     fill-opacity="1"
     fill-rule="nonzero"
     id="path846" />
  <g
     clip-path="url(#53021cd1f9)"
     id="g850"
     transform="translate(-108.38081,-298.125)">
    <path
       fill="#f682c4"
       d="m 371.88672,329.59766 h -36.62891 c -1.43359,0 -2.55859,1.22656 -2.42969,2.65625 l 4.78516,64.14062 c 0.33594,3.79688 3.51172,6.70313 7.32031,6.70313 h 17.27735 c 3.80859,0 6.98828,-2.90625 7.32031,-6.70313 l 4.78906,-64.14062 c 0.125,-1.42969 -1,-2.65625 -2.43359,-2.65625"
       fill-opacity="1"
       fill-rule="nonzero"
       id="path848" />
  </g>
</svg>
